<svg xmlns="http://www.w3.org/2000/svg" viewBox="0 0 1635.31 1963.78"><defs><style>.cls-1{fill:#ee4323;}</style></defs><title>Fichier 3</title><g id="Calque_2" data-name="Calque 2"><g id="Calque_1-2" data-name="Calque 1"><path class="cls-1" d="M526.08,1963.65C408.33,1912.75,298.15,1783.4,297.89,1651c-.32-144.31,91.13-266.83,204.87-347.35-13.67,51.67-21.13,98.92,12.75,145.13,31.49,43,86.65,63.84,138.73,52.51,121.7-26.64,127.28-160.42,55.13-238.36C638,1185.78,569,1098.6,596.19,986.66c13.59-56.11,48-108.67,91.69-146.24-33.55,88.16,61.79,175.11,124.6,218.42,109,75.14,228.51,131.92,328.69,220,105.38,92.58,183.2,217.74,167.49,362.91-17,157.35-142.06,266.79-282.31,322,296.36-65.41,602.58-295.42,608.85-624.1,5.2-270.4-180.29-478.5-410.08-597.63l-12-6.56c6.31,15.3,8.37,28.32,8.13,40a139.79,139.79,0,0,0,3.85-26.53,129.6,129.6,0,0,1-4.21,32.07l.36-5.54a134.69,134.69,0,0,1-17,40.55l3.37-3.63c-45.84,76-169.95,92.55-231.25,13.82C877.8,699.55,978.42,563,992.5,428.89,1010.12,260.81,904.71,97.64,774,0c72,116.44-22.85,270.49-98.72,356.62-73.57,83.48-163,153.18-244.25,229C343.8,667.13,259.93,753,188.22,848.57,44.8,1040-43,1280.67,21.52,1519.44,86,1758,292.69,1909.93,526.09,1963.64Z"/></g></g></svg>