<?xml version="1.0" encoding="utf-8"?>
<!-- Generator: Adobe Illustrator 19.1.0, SVG Export Plug-In . SVG Version: 6.00 Build 0)  -->
<svg height="45px" x="0px" y="0px" viewBox="0 0 298 663.3" style="enable-background:new 0 0 298 663.3;"><g><g transform="translate(-957, -316)"><g transform="translate(273, 168)"><g transform="translate(614, 134)"><g transform="translate(70, 14)"><path fill="#13AA52" d="M292.5,264C257.6,109.9,175,59.2,166.1,39.8c-9.8-13.7-19.6-37.9-19.6-37.9 c-0.2-0.4-0.4-1.1-0.7-1.8c-1,13.6-1.5,18.9-14.4,32.7c-20,15.6-122.7,101.8-131,277c-7.8,163.3,118,260.7,135.1,273.1l1.9,1.4 c4.9-11.2,9.8-43.1,13.2-86.8c0.8,35.3,5.8,73.1,23.3,81.1l1-0.7c2.8-1.9,10.9-7.8,21.7-17.8 C239.3,520.7,319.8,423.4,292.5,264z"></path><path fill="#ABABAB" d="M150.7,497.3c-3.4,43.7-8.4,75.5-13.2,86.7c0,0,5.4,38.5,9.1,79.3l13.3,0 c4.9-45.7,14.1-84.9,14.1-84.9C156.5,570.4,151.4,532.6,150.7,497.3z"></path><path fill="#13AA52" d="M292.5,264C257.6,109.9,175,59.2,166.1,39.8c-9.8-13.7-19.6-37.9-19.6-37.9 c8.3,32.3,6.9,290.1,7.8,321c2,64.6,0,126.6-3.8,174.5c0.8,35.3,5.8,73.1,23.3,81.1l1-0.7c2.8-1.9,10.9-7.8,21.7-17.8l0.8-0.7 C239.3,520.7,319.8,423.4,292.5,264z"></path><linearGradient id="Shape_1_" gradientUnits="userSpaceOnUse" x1="-232.3255" y1="2195.9507" x2="-232.3255" y2="2194.9333" gradientTransform="matrix(68.2258 0 0 -259.7151 16072.8818 570323.5)"><stop offset="0" style="stop-color:#13AA52;stop-opacity:0"></stop><stop offset="1" style="stop-color:#116149;stop-opacity:0.2"></stop></linearGradient><path fill="url(#Shape_1_)" d="M292.5,264C257.6,109.9,175,59.2,166.1,39.8c-9.8-13.7-19.6-37.9-19.6-37.9 c8.3,32.3,6.9,290.1,7.8,321c2,64.6,0,126.6-3.8,174.5c0.8,35.3,5.8,73.1,23.3,81.1l1-0.7c2.8-1.9,10.9-7.8,21.7-17.8l0.8-0.7 C239.3,520.7,319.8,423.4,292.5,264z"></path></g></g></g></g></g></svg>
